<svg xmlns="http://www.w3.org/2000/svg" viewBox="0 0 144.69 164"><defs><style>.cls-1{fill:#231f20;}</style></defs><title>raw_black</title><g id="Layer_2" data-name="Layer 2"><g id="Assets"><path class="cls-1" d="M125.39,29.21a82.65,82.65,0,0,0-9.9-9.9A82,82,0,0,0,0,29.21l9.94,9.94a68,68,0,1,1,105.5,85.7,66.19,66.19,0,0,1-9.9,9.9,68,68,0,0,1-95.6-9.89L0,134.8A82,82,0,1,0,125.39,29.21Z"/><path class="cls-1" d="M37.65,47.06a43.46,43.46,0,0,0-9.9,9.9L0,29.21a81.21,81.21,0,0,1,9.9-9.9Z"/><path class="cls-1" d="M125.39,134.8a81.21,81.21,0,0,1-9.91,9.89l-9.94-9.94-7.82-7.82-10-10a43.26,43.26,0,0,0,9.9-9.9Z"/><path class="cls-1" d="M87.73,116.94a42.95,42.95,0,0,1-50.08,0A43.46,43.46,0,0,1,27.76,107a42.9,42.9,0,0,1,0-50.08,43.46,43.46,0,0,1,9.9-9.9,42.94,42.94,0,0,1,50.09,0A43.26,43.26,0,0,1,97.63,57l10-10a57.61,57.61,0,0,0-9.9-9.9,57,57,0,0,0-80,80,57.61,57.61,0,0,0,9.9,9.9,57,57,0,0,0,80-9.91l-10-10A43.26,43.26,0,0,1,87.73,116.94Z"/><path class="cls-1" d="M37.65,117,9.9,144.7A81.92,81.92,0,0,1,0,134.8L27.76,107A43.46,43.46,0,0,0,37.65,117Z"/><path class="cls-1" d="M125.39,29.21,97.63,57a43.26,43.26,0,0,0-9.89-9.91l10-10,7.82-7.82,9.94-9.94A82.65,82.65,0,0,1,125.39,29.21Z"/></g></g></svg>