<svg version="1.1" id="Layer_1" xmlns="http://www.w3.org/2000/svg" xmlns:xlink="http://www.w3.org/1999/xlink" x="0px" y="0px" viewBox="0 0 24 24" style="enable-background:new 0 0 24 24;" xml:space="preserve" width="50" height="50" fill="#000000">
<g style="opacity:0.3;">
	<circle cx="12" cy="12" r="9"/>
</g>
<g style="opacity:0.3;">
	<g>
		<path d="M20.949,12.951c0.001-0.013,0.004-0.025,0.005-0.038C20.953,12.925,20.95,12.938,20.949,12.951z"/>
	</g>
	<g>
		<path d="M3.046,12.909c0.002,0.017,0.005,0.034,0.007,0.051C3.051,12.944,3.047,12.927,3.046,12.909z"/>
	</g>
	<g>
		<path d="M13.218,14.385h2.329l0.366-2.366h-2.695v-1.293c0-0.983,0.321-1.854,1.241-1.854h1.477V6.807&#xA;&#9;&#9;&#9;c-0.26-0.035-0.809-0.112-1.846-0.112c-2.166,0-3.436,1.144-3.436,3.75v1.574H8.427v2.366h2.227v6.503&#xA;&#9;&#9;&#9;C11.095,20.955,11.541,21,12,21c0.414,0,0.819-0.038,1.218-0.092V14.385z"/>
	</g>
</g>
<circle style="fill:none;stroke:#000000;stroke-width:2;stroke-miterlimit:10;" cx="12" cy="12" r="9"/>
<g>
	<path d="M20.949,12.951c0.001-0.013,0.004-0.025,0.005-0.038C20.953,12.925,20.95,12.938,20.949,12.951z"/>
	<path d="M3.046,12.909c0.002,0.017,0.005,0.034,0.007,0.051C3.051,12.944,3.047,12.927,3.046,12.909z"/>
	<path d="M13.218,14.385h2.329l0.366-2.366h-2.695v-1.293c0-0.983,0.321-1.854,1.241-1.854h1.477V6.807&#xA;&#9;&#9;c-0.26-0.035-0.809-0.112-1.846-0.112c-2.166,0-3.436,1.144-3.436,3.75v1.574H8.427v2.366h2.227v6.503&#xA;&#9;&#9;C11.095,20.955,11.541,21,12,21c0.414,0,0.819-0.038,1.218-0.092V14.385z"/>
</g>
</svg>