<?xml version="1.0"?>
<svg xmlns="http://www.w3.org/2000/svg" viewBox="0 0 24 24" width="24px" height="24px">
    <path d="M12,2C6.486,2,2,6.486,2,12s4.486,10,10,10s10-4.486,10-10S17.514,2,12,2z M8.5,14c0.328,0,0.639-0.104,0.899-0.299 l1.202,1.598C9.992,15.758,9.265,16,8.5,16C6.57,16,5,14.43,5,12.5v-1C5,9.57,6.57,8,8.5,8c0.765,0,1.492,0.242,2.101,0.701 l-1.202,1.598C9.139,10.104,8.828,10,8.5,10C7.673,10,7,10.673,7,11.5v1C7,13.327,7.673,14,8.5,14z M16.5,14 c0.328,0,0.639-0.104,0.899-0.299l1.202,1.598C17.992,15.758,17.265,16,16.5,16c-1.93,0-3.5-1.57-3.5-3.5v-1C13,9.57,14.57,8,16.5,8 c0.765,0,1.492,0.242,2.101,0.701l-1.202,1.598C17.139,10.104,16.828,10,16.5,10c-0.827,0-1.5,0.673-1.5,1.5v1 C15,13.327,15.673,14,16.5,14z"/>
</svg>
