<?xml version="1.0" encoding="utf-8"?>
<!-- Generator: Adobe Illustrator 23.0.1, SVG Export Plug-In . SVG Version: 6.00 Build 0)  -->
<svg xmlns="http://www.w3.org/2000/svg" xmlns:xlink="http://www.w3.org/1999/xlink" version="1.1" id="Two_Tone" x="0px" y="0px" viewBox="0 0 24 24" style="enable-background:new 0 0 24 24;" xml:space="preserve" width="24px" height="24px">
<circle style="opacity:0.3;enable-background:new    ;" cx="12" cy="12" r="9"/>
<path d="M12,22C6.5,22,2,17.5,2,12C2,6.5,6.5,2,12,2c5.5,0,10,4.5,10,10C22,17.5,17.5,22,12,22z M12,4c-4.4,0-8,3.6-8,8s3.6,8,8,8  s8-3.6,8-8S16.4,4,12,4z"/>
<path d="M9.5,16C7.6,16,6,14.4,6,12.5v-1C6,9.6,7.6,8,9.5,8c0.8,0,1.5,0.2,2.1,0.7l-1.2,1.6C10.1,10.1,9.8,10,9.5,10  C8.7,10,8,10.7,8,11.5v1C8,13.3,8.7,14,9.5,14c0.3,0,0.6-0.1,0.9-0.3l1.2,1.6C11,15.8,10.3,16,9.5,16z"/>
<path d="M15.5,16c-1.9,0-3.5-1.6-3.5-3.5v-1C12,9.6,13.6,8,15.5,8c0.8,0,1.5,0.2,2.1,0.7l-1.2,1.6c-0.3-0.2-0.6-0.3-0.9-0.3  c-0.8,0-1.5,0.7-1.5,1.5v1c0,0.8,0.7,1.5,1.5,1.5c0.3,0,0.6-0.1,0.9-0.3l1.2,1.6C17,15.8,16.3,16,15.5,16z"/>
</svg>
