<svg xmlns="http://www.w3.org/2000/svg" viewBox="0 0 400 400"><defs><style>.cls-1{fill:#fff;}</style></defs><title>raw_favicon</title><g id="Layer_2" data-name="Layer 2"><g id="Concept"><circle cx="200" cy="200" r="200"/><path class="cls-1" d="M50,200A150,150,0,1,0,200,50,150,150,0,0,0,50,200Zm194.53,43.67a15,15,0,0,1,15,15V260a15,15,0,0,1-15,15H243.2a15,15,0,0,1-15-15v-1.33a15,15,0,0,1,15-15Zm-43.86,0a15,15,0,0,1,15,15V260a15,15,0,0,1-15,15h-1.34a15,15,0,0,1-15-15v-1.33a15,15,0,0,1,15-15Zm-43.87,0a15,15,0,0,1,15,15V260a15,15,0,0,1-15,15h-1.33a15,15,0,0,1-15-15v-1.33a15,15,0,0,1,15-15ZM244.53,200a15,15,0,0,1,15,15v1.33a15,15,0,0,1-15,15H243.2a15,15,0,0,1-15-15V215a15,15,0,0,1,15-15Zm-43.86-31.33a15,15,0,0,1,15,15v32.66a15,15,0,0,1-15,15h-1.34a15,15,0,0,1-15-15V183.67a15,15,0,0,1,15-15Zm-43.87,0a15,15,0,0,1,15,15v32.66a15,15,0,0,1-15,15h-1.33a15,15,0,0,1-15-15V183.67a15,15,0,0,1,15-15ZM200.67,125a15,15,0,0,1,15,15v1.33a15,15,0,0,1-15,15h-1.34a15,15,0,0,1-15-15V140a15,15,0,0,1,15-15Z"/></g></g></svg>