<?xml version="1.0"?>
<svg xmlns="http://www.w3.org/2000/svg" viewBox="0 0 24 24" width="24px" height="24px">
    <path style="line-height:normal;text-indent:0;text-align:start;text-decoration-line:none;text-decoration-style:solid;text-decoration-color:#000;text-transform:none;block-progression:tb;isolation:auto;mix-blend-mode:normal" d="M 3 3 C 1.9069372 3 1 3.9069372 1 5 L 1 15 C 1 16.093063 1.9069372 17 3 17 L 16 17 C 17.093063 17 18 16.093063 18 15 L 18 5 C 18 3.9069372 17.093063 3 16 3 L 3 3 z M 3 5 L 16 5 L 16 12 L 13.5 9.5 L 9.34375 13.648438 L 7.9238281 12.240234 L 9.4804688 10.677734 L 7.4335938 8.5214844 L 3 12.992188 L 3 5 z M 11 6 A 1 1 0 0 0 10 7 A 1 1 0 0 0 11 8 A 1 1 0 0 0 12 7 A 1 1 0 0 0 11 6 z M 20 7 L 20 19 L 5 19 L 5 21 L 20 21 C 21.093063 21 22 20.093063 22 19 L 22 7 L 20 7 z" font-weight="400" font-family="sans-serif" white-space="normal" overflow="visible"/>
</svg>
