<?xml version="1.0"?>
<svg xmlns="http://www.w3.org/2000/svg" viewBox="0 0 24 24" width="24px" height="24px">
    <path d="M 12 4 A 2 2 0 0 0 10.269531 5 L 5 5 L 2 5 L 2 7 L 4 7 L 0 15 C 0 17.761 2.239 20 5 20 C 7.761 20 10 17.761 10 15 L 6 7 L 10.271484 7 A 2 2 0 0 0 12 8 A 2 2 0 0 0 13.730469 7 L 18 7 L 14 15 C 14 17.761 16.239 20 19 20 C 21.761 20 24 17.761 24 15 L 20 7 L 22 7 L 22 5 L 13.728516 5 A 2 2 0 0 0 12 4 z M 5 9.0214844 L 7.9882812 15 L 2.0117188 15 L 5 9.0214844 z M 19 9.0214844 L 21.988281 15 L 16.011719 15 L 19 9.0214844 z"/>
</svg>
