<svg xmlns="http://www.w3.org/2000/svg" viewBox="0 0 243.4 243.4"><defs><style>.cls-1{fill:#fff;}</style></defs><title>raw_avatar</title><g id="Layer_2" data-name="Layer 2"><g id="Branding"><path id="ARI" class="cls-1" d="M0,121.7A121.7,121.7,0,1,0,121.7,0,121.7,121.7,0,0,0,0,121.7Zm157.83,35.43A12.17,12.17,0,0,1,170,169.3v1.08a12.17,12.17,0,0,1-12.17,12.17h-1.08a12.17,12.17,0,0,1-12.17-12.17V169.3a12.17,12.17,0,0,1,12.17-12.17Zm-35.59,0a12.17,12.17,0,0,1,12.17,12.17v1.08a12.17,12.17,0,0,1-12.17,12.17h-1.08A12.17,12.17,0,0,1,109,170.38V169.3a12.17,12.17,0,0,1,12.17-12.17Zm-35.59,0A12.17,12.17,0,0,1,98.82,169.3v1.08a12.17,12.17,0,0,1-12.17,12.17H85.57A12.17,12.17,0,0,1,73.4,170.38V169.3a12.17,12.17,0,0,1,12.17-12.17Zm71.18-35.43A12.17,12.17,0,0,1,170,133.87V135a12.16,12.16,0,0,1-12.17,12.17h-1.08A12.17,12.17,0,0,1,144.58,135v-1.08a12.17,12.17,0,0,1,12.17-12.17ZM122.24,96.28a12.17,12.17,0,0,1,12.17,12.17V135a12.17,12.17,0,0,1-12.17,12.17h-1.08A12.17,12.17,0,0,1,109,135v-26.5a12.17,12.17,0,0,1,12.17-12.17Zm-35.59,0a12.17,12.17,0,0,1,12.17,12.17V135a12.17,12.17,0,0,1-12.17,12.17H85.57A12.17,12.17,0,0,1,73.4,135v-26.5A12.17,12.17,0,0,1,85.57,96.28Zm35.59-35.43A12.17,12.17,0,0,1,134.41,73V74.1a12.17,12.17,0,0,1-12.17,12.17h-1.08A12.17,12.17,0,0,1,109,74.1V73a12.17,12.17,0,0,1,12.17-12.17Z"/></g></g></svg>