<?xml version="1.0" encoding="UTF-8" standalone="no"?>
<svg
   xmlns:dc="http://purl.org/dc/elements/1.1/"
   xmlns:cc="http://creativecommons.org/ns#"
   xmlns:rdf="http://www.w3.org/1999/02/22-rdf-syntax-ns#"
   xmlns:svg="http://www.w3.org/2000/svg"
   xmlns="http://www.w3.org/2000/svg"
   viewBox="0 0 116.28933 131.80932"
   height="131.80933"
   width="116.28933"
   xml:space="preserve"
   id="svg2"
   version="1.1"><metadata
     id="metadata8"><rdf:RDF><cc:Work
         rdf:about=""><dc:format>image/svg+xml</dc:format><dc:type
           rdf:resource="http://purl.org/dc/dcmitype/StillImage" /><dc:title></dc:title></cc:Work></rdf:RDF></metadata><defs
     id="defs6"><clipPath
       id="clipPath18"
       clipPathUnits="userSpaceOnUse"><path
         id="path16"
         d="m 307.218,144.406 h -162 v 270 h 162 z" /></clipPath><linearGradient
       id="linearGradient28"
       spreadMethod="pad"
       gradientTransform="matrix(157.41344,272.64807,272.64807,-157.41344,147.51086,143.08258)"
       gradientUnits="userSpaceOnUse"
       y2="0"
       x2="1"
       y1="0"
       x1="0"><stop
         id="stop24"
         offset="0"
         style="stop-opacity:1;stop-color:#29323c" /><stop
         id="stop26"
         offset="1"
         style="stop-opacity:1;stop-color:#485664" /></linearGradient><clipPath
       id="clipPath38"
       clipPathUnits="userSpaceOnUse"><path
         id="path36"
         d="M 0,841.89 H 595.276 V 0 H 0 Z" /></clipPath><clipPath
       id="clipPath198"
       clipPathUnits="userSpaceOnUse"><path
         id="path196"
         d="m 319.246,215.201 h 11.663 v -11.645 h -11.663 z" /></clipPath><clipPath
       id="clipPath222"
       clipPathUnits="userSpaceOnUse"><path
         id="path220"
         d="M 0,841.89 H 595.276 V 0 H 0 Z" /></clipPath><clipPath
       id="clipPath230"
       clipPathUnits="userSpaceOnUse"><path
         id="path228"
         d="m 318.387,243.235 h 13.348 v -10.01 h -13.348 z" /></clipPath><clipPath
       id="clipPath254"
       clipPathUnits="userSpaceOnUse"><path
         id="path252"
         d="M 0,841.89 H 595.276 V 0 H 0 Z" /></clipPath><clipPath
       id="clipPath262"
       clipPathUnits="userSpaceOnUse"><path
         id="path260"
         d="m 318.387,187.168 h 13.348 V 173.82 h -13.348 z" /></clipPath><clipPath
       id="clipPath292"
       clipPathUnits="userSpaceOnUse"><path
         id="path290"
         d="M 0,841.89 H 595.276 V 0 H 0 Z" /></clipPath><clipPath
       id="clipPath304"
       clipPathUnits="userSpaceOnUse"><path
         id="path302"
         d="M 45.311,521.229 H 196.007 V 671.925 H 45.311 Z" /></clipPath><linearGradient
       id="linearGradient314"
       spreadMethod="pad"
       gradientTransform="matrix(150.69664,0,0,-150.69664,45.310829,596.57672)"
       gradientUnits="userSpaceOnUse"
       y2="0"
       x2="1"
       y1="0"
       x1="0"><stop
         id="stop310"
         offset="0"
         style="stop-opacity:1;stop-color:#29323c" /><stop
         id="stop312"
         offset="1"
         style="stop-opacity:1;stop-color:#485664" /></linearGradient><clipPath
       id="clipPath324"
       clipPathUnits="userSpaceOnUse"><path
         id="path322"
         d="M 0,841.89 H 595.276 V 0 H 0 Z" /></clipPath></defs><g
     transform="matrix(1.3333333,0,0,-1.3333333,-346.37879,861.34025)"
     id="g10"><g
       id="g286"><g
         clip-path="url(#clipPath292)"
         id="g288"><g
           transform="translate(329.3691,570.7472)"
           id="g294"><path
             id="path296"
             style="fill:#ffffff;fill-opacity:1;fill-rule:nonzero;stroke:none"
             d="m 0,0 -4.714,4.714 -6.021,6.022 c -1.652,-2.303 -3.671,-4.316 -5.968,-5.968 -4.249,-3.056 -9.464,-4.858 -15.093,-4.858 -5.624,0 -10.839,1.802 -15.094,4.852 -2.297,1.658 -4.31,3.671 -5.962,5.974 -3.062,4.249 -4.864,9.464 -4.864,15.094 0,5.629 1.802,10.844 4.858,15.093 1.658,2.303 3.671,4.316 5.968,5.968 4.255,3.056 9.47,4.859 15.094,4.859 5.629,0 10.844,-1.803 15.099,-4.859 2.297,-1.658 4.316,-3.671 5.962,-5.974 l 6.028,6.028 4.714,4.714 C 5.745,44.6 9.193,35.607 9.193,25.83 9.193,16.046 5.745,7.053 0,0 m -31.796,-15.16 c -9.784,0 -18.777,3.442 -25.83,9.186 l 4.714,4.714 c 5.829,-4.551 13.164,-7.269 21.116,-7.269 7.95,0 15.286,2.718 21.115,7.275 l 4.714,-4.713 c -7.053,-5.751 -16.047,-9.193 -25.829,-9.193 m 0,81.979 c 9.788,0 18.782,-3.448 25.835,-9.193 l -4.714,-4.713 c -5.829,4.557 -13.165,7.275 -21.121,7.275 -7.952,0 -15.287,-2.718 -21.116,-7.275 l -4.714,4.713 c 7.053,5.745 16.046,9.193 25.83,9.193 M -66.155,25.83 c 0,-7.963 2.718,-15.293 7.275,-21.122 l -4.714,-4.714 -5.991,-5.992 c 1.814,-2.151 3.809,-4.153 5.967,-5.967 8.602,-7.252 19.711,-11.634 31.822,-11.634 12.109,0 23.219,4.382 31.82,11.64 2.159,1.808 4.154,3.803 5.974,5.961 7.258,8.602 11.634,19.711 11.634,31.828 0,12.109 -4.376,23.219 -11.634,31.82 -1.82,2.159 -3.815,4.154 -5.968,5.968 -8.601,7.258 -19.711,11.64 -31.826,11.64 -12.111,0 -23.22,-4.382 -31.822,-11.64 -2.158,-1.814 -4.153,-3.809 -5.967,-5.968 l 5.991,-5.991 4.714,-4.714 c -4.557,-5.829 -7.275,-13.159 -7.275,-21.115" /></g></g></g></g></svg>